<?xml version="1.0" encoding="UTF-8"?>
<svg id="Layer_2" xmlns="http://www.w3.org/2000/svg" viewBox="0 0 219.68 219.39" width="220" height="220">
    <defs>
        <style>
            .cls-1{fill:#3f55fc;}.cls-2,.cls-3{stroke-width:2px;}.cls-2,.cls-3,.cls-4,.cls-5{fill:none;stroke:#7119f4;stroke-linecap:round;stroke-linejoin:round;}.cls-3{stroke-dasharray:0
            0 0 3.97;}.cls-4{stroke-width:1.54px;}.cls-5{stroke-width:1.5px;}
        </style>
    </defs>
    <g id="Layer_1-2">
        <path class="cls-1"
              d="m44.83,58.32c.35.25.42.73.15,1.09-.26.35-.74.43-1.08.18l-2.39-1.75-2.52,3.44,2.39,1.75c.35.25.42.73.16,1.08-.26.36-.74.44-1.09.19l-5.98-4.37c-.35-.25-.42-.73-.15-1.09.26-.35.74-.43,1.08-.18l2.43,1.78,2.52-3.45-2.43-1.78c-.35-.25-.42-.73-.16-1.08.26-.36.74-.44,1.09-.19l5.98,4.37Z"/>
        <path class="cls-1"
              d="m32.34,63.45l6.33,3.54c.38.22.51.68.29,1.07l-2.54,4.54c-.19.33-.62.46-.95.28-.34-.19-.45-.62-.26-.95l2.16-3.86-2-1.12-1.88,3.36c-.19.33-.62.46-.96.27-.33-.18-.44-.61-.25-.95l1.88-3.36-2.07-1.16-2.19,3.91c-.19.33-.62.46-.95.28-.34-.19-.45-.62-.26-.95l2.57-4.59c.22-.39.68-.53,1.07-.31Z"/>
        <path class="cls-1"
              d="m27.83,72.28l5.51,5.83c.29.31.4.7.23,1.11l-.03.07c-.17.41-.51.61-.93.63l-8.02.32c-.13.02-.24,0-.34-.04-.39-.16-.57-.58-.41-.97.14-.34.43-.5.79-.51l1.8-.05,1.64-4.02-1.29-1.34c-.24-.24-.3-.55-.18-.86.16-.38.57-.56.94-.4.1.04.19.12.29.23Zm.1,6.36l3.89-.11-2.71-2.8-1.19,2.91Z"/>
        <path class="cls-1"
              d="m30.42,85.36c.41.11.65.54.53.97-.12.42-.54.66-.95.55l-6.46-1.79-1.08,3.9c-.11.38-.49.6-.87.5-.38-.1-.6-.5-.49-.88l1.29-4.65c.12-.43.54-.67.96-.55l7.06,1.96Z"/>
        <path class="cls-1"
              d="m27.36,94.79l.38-2.14c.07-.4.45-.66.83-.59.39.07.65.44.58.84l-1.03,5.85c-.07.39-.45.65-.83.58-.38-.07-.65-.44-.58-.83l.38-2.15-6.58-1.16c-.42-.08-.69-.49-.62-.91s.47-.72.89-.65l6.58,1.16Z"/>
        <path class="cls-1"
              d="m27.03,101.69c.43.02.75.39.72.84-.02.43-.38.76-.81.73l-2.96-.17-.25,4.26,2.95.17c.43.02.75.39.72.82-.03.45-.39.77-.81.75l-7.39-.42c-.43-.02-.75-.39-.72-.84.02-.43.38-.76.81-.73l3.01.17.24-4.26-3-.17c-.43-.02-.75-.39-.72-.82.03-.45.39-.77.81-.75l7.39.42Z"/>
        <path class="cls-1"
              d="m24.44,127.11h.02c2.41-.62,4.9.76,5.57,3.42.67,2.66-.84,5.02-3.25,5.63h-.02c-2.4.62-4.9-.75-5.57-3.42-.68-2.66.84-5.02,3.25-5.64Zm1.89,7.47h.02c1.66-.43,2.73-2,2.29-3.72-.44-1.72-2.1-2.58-3.76-2.16h-.02c-1.66.43-2.72,2-2.28,3.72.44,1.72,2.08,2.58,3.74,2.16Z"/>
        <path class="cls-1"
              d="m31.24,137.9c.41-.16.85.03,1.02.45l1.01,2.54c.77,1.95.16,3.59-1.49,4.25h-.02c-1.84.74-3.39-.38-4.12-2.21l-.65-1.65-1.98.78c-.4.16-.84-.04-1-.44-.16-.42.02-.86.42-1.02l6.82-2.7Zm-2.28,4.56c.44,1.11,1.32,1.55,2.17,1.22h.02c.96-.39,1.19-1.29.75-2.38l-.67-1.7-2.95,1.17.67,1.7Z"/>
        <path class="cls-1"
              d="m34.86,146.57c.39-.21.85-.06,1.06.33l1.29,2.41c.99,1.85.57,3.55-1,4.38h-.02c-1.74.94-3.41,0-4.34-1.73l-.84-1.57-1.88,1c-.38.2-.84.06-1.05-.33-.21-.39-.07-.86.3-1.06l6.47-3.45Zm-1.75,4.79c.56,1.05,1.49,1.39,2.3.96h.02c.91-.5,1.03-1.42.48-2.45l-.86-1.61-2.8,1.49.86,1.61Z"/>
        <path class="cls-1"
              d="m36.22,156.63l.02-.02c2.02-1.44,4.84-1.06,6.43,1.18,1.59,2.24,1.03,4.99-.99,6.43h-.02c-2.02,1.45-4.84,1.07-6.43-1.17-1.59-2.24-1.03-5,.99-6.43Zm4.46,6.28h.02c1.39-1.01,1.82-2.86.79-4.31-1.03-1.45-2.89-1.65-4.28-.66h-.02c-1.4,1.01-1.81,2.86-.78,4.31,1.03,1.45,2.88,1.66,4.27.66Z"/>
        <path class="cls-1"
              d="m46.43,164.24c.32-.3.81-.28,1.11.05l2.17,2.34c.77.82,1.13,1.69,1.11,2.49-.03.67-.33,1.32-.89,1.84l-.02.02c-1.03.96-2.23.94-3.31.3l-.39,2.7c-.03.24-.09.43-.26.59-.31.29-.78.22-1.04-.06-.24-.26-.28-.54-.23-.84l.53-3.45-1.35-1.45-1.74,1.61c-.31.29-.8.27-1.09-.05-.3-.33-.29-.81.02-1.1l5.37-4.99Zm0,5.28c.76.82,1.68.95,2.33.35l.02-.02c.69-.64.6-1.5-.19-2.35l-1.56-1.68-2.17,2.01,1.57,1.69Z"/>
        <path class="cls-1"
              d="m54.62,173.35l-1.65-1.41c-.31-.27-.34-.72-.09-1.02.25-.3.71-.34,1.02-.07l4.51,3.87c.3.26.33.71.08,1.01-.26.3-.71.34-1.01.08l-1.66-1.42-4.35,5.07c-.28.32-.77.35-1.1.07-.33-.28-.38-.77-.1-1.1l4.35-5.07Z"/>
        <path class="cls-1"
              d="m57.89,180.74l2.43-3.63c.24-.36.71-.45,1.09-.2.36.24.46.72.22,1.07l-2.4,3.58c-.91,1.36-.68,2.56.48,3.34,1.16.77,2.32.57,3.23-.78l2.43-3.63c.24-.36.71-.45,1.08-.2.36.24.46.72.22,1.07l-2.39,3.57c-1.46,2.19-3.45,2.45-5.39,1.15-1.93-1.3-2.43-3.22-1-5.34Z"/>
        <path class="cls-1"
              d="m69.38,182.97c.19-.38.66-.55,1.06-.35l.15.07c.34.17.46.44.53.77l1.48,7.09,2.4-4.85c.18-.37.65-.52,1.02-.34.39.19.55.65.36,1.02l-3.29,6.63c-.19.38-.64.54-1.03.35l-.06-.03c-.33-.16-.45-.44-.53-.78l-1.52-7.3-2.48,5.01c-.18.37-.65.52-1.02.34-.39-.19-.55-.65-.36-1.02l3.28-6.62Z"/>
        <path class="cls-1"
              d="m79.51,187.61c.15-.4.59-.6,1.01-.44.41.15.61.59.46,1l-2.62,6.92c-.15.4-.59.6-1,.44-.42-.16-.62-.6-.47-1l2.62-6.92Z"/>
        <path class="cls-1"
              d="m85.9,190.57l-2.09-.59c-.39-.11-.61-.51-.5-.89.11-.37.5-.6.9-.49l5.72,1.63c.38.11.6.51.49.89-.11.37-.5.6-.89.49l-2.1-.6-1.83,6.42c-.12.41-.56.64-.97.52s-.67-.54-.55-.96l1.83-6.42Z"/>
        <path class="cls-1"
              d="m94.83,196.69l-2.38-4.61c-.08-.17-.12-.35-.09-.56.07-.41.46-.68.9-.61.34.05.54.28.68.58l1.9,3.89,3.06-3.1c.23-.24.49-.39.82-.34.45.07.7.46.64.87-.03.21-.16.38-.3.51l-3.67,3.58-.44,2.72c-.07.42-.46.7-.9.63-.43-.07-.72-.46-.65-.88l.43-2.69Z"/>
        <path class="cls-1"
              d="m117.19,193.04c-.06-.44.24-.82.69-.88l2.71-.34c2.08-.27,3.52.73,3.75,2.49v.03c.25,1.96-1.21,3.19-3.16,3.44l-1.76.22.27,2.11c.05.42-.24.81-.68.86-.44.06-.83-.24-.88-.66l-.93-7.27Zm3.85,3.34c1.18-.15,1.83-.89,1.71-1.81v-.02c-.13-1.03-.95-1.47-2.12-1.32l-1.81.23.4,3.15,1.81-.23Z"/>
        <path class="cls-1"
              d="m126.48,191.69c-.11-.43.15-.84.58-.95l3.1-.77c1.09-.27,2.03-.17,2.72.23.57.35.99.92,1.18,1.67v.02c.35,1.37-.25,2.4-1.33,3.05l2.18,1.65c.19.15.33.28.39.51.1.42-.19.79-.56.88-.35.09-.61-.02-.84-.21l-2.77-2.13-1.92.48.57,2.3c.1.42-.15.83-.57.93-.43.11-.85-.14-.95-.55l-1.78-7.11Zm4.63,2.55c1.09-.27,1.65-1.01,1.43-1.88v-.02c-.23-.92-1.03-1.25-2.16-.97l-2.22.55.72,2.87,2.23-.56Z"/>
        <path class="cls-1"
              d="m137.12,192.67v-.02c-.92-2.31.12-4.95,2.68-5.96,2.56-1.01,5.09.2,6,2.5v.02c.92,2.31-.12,4.95-2.68,5.96s-5.09-.2-6-2.5Zm7.17-2.83v-.02c-.64-1.59-2.34-2.45-3.99-1.8-1.65.65-2.29,2.41-1.66,4v.02c.64,1.59,2.33,2.44,3.98,1.79,1.65-.65,2.3-2.4,1.67-3.99Z"/>
        <path class="cls-1"
              d="m148.32,188.02v-.02c-1.22-2.15-.57-4.91,1.78-6.24,1.17-.66,2.1-.82,3.1-.72.19.02.44.13.59.39.2.36.07.84-.3,1.05-.18.1-.36.1-.51.08-.7-.08-1.39-.02-2.23.46-1.44.81-1.83,2.66-1.01,4.13v.02c.9,1.58,2.61,2.15,4.2,1.25.74-.41,1.27-1.02,1.56-1.64l-.81-1.44-1.54.86c-.33.19-.75.09-.94-.24-.19-.33-.05-.75.28-.94l2.17-1.22c.39-.22.86-.09,1.07.29l1.15,2.05c.22.38.21.75,0,1.13-.42.82-1.14,1.74-2.31,2.39-2.44,1.37-5.01.56-6.26-1.68Z"/>
        <path class="cls-1"
              d="m156.33,179.06c-.26-.35-.19-.83.17-1.1l2.57-1.91c.9-.67,1.81-.93,2.6-.83.67.1,1.27.47,1.73,1.08v.02c.86,1.13.7,2.32-.05,3.33l2.64.69c.24.06.42.13.56.32.26.34.13.8-.18,1.03-.29.21-.57.22-.86.13l-3.37-.9-1.59,1.18,1.41,1.9c.26.34.18.82-.17,1.08-.36.27-.84.2-1.1-.14l-4.37-5.88Zm5.25.57c.9-.67,1.13-1.56.6-2.28l-.02-.02c-.56-.76-1.42-.76-2.36-.07l-1.84,1.37,1.76,2.38,1.85-1.37Z"/>
        <path class="cls-1"
              d="m169.35,178.1l-4.97-5.27c-.3-.32-.28-.8.04-1.11l3.78-3.57c.28-.26.73-.25.99.02.27.28.24.72-.04.99l-3.21,3.03,1.57,1.67,2.8-2.64c.28-.26.73-.25.99.03.26.27.23.71-.04.98l-2.8,2.64,1.62,1.72,3.26-3.08c.28-.26.73-.25.99.02.27.28.24.72-.04.99l-3.83,3.61c-.32.31-.81.3-1.11-.02Z"/>
        <path class="cls-1"
              d="m176.37,170.92c-.21.06-.46.01-.65-.15-.31-.26-.33-.72-.07-1.03.14-.17.28-.23.4-.26.92-.19,1.68-.58,2.31-1.32.63-.74.68-1.5.18-1.93l-.02-.02c-.48-.41-.97-.35-2.33.67-1.58,1.16-2.69,1.62-3.93.57l-.02-.02c-1.15-.98-1.12-2.63.02-3.98.73-.86,1.53-1.36,2.46-1.64.19-.07.46-.06.69.14.31.26.33.72.07,1.03-.1.12-.21.19-.35.24-.78.24-1.38.6-1.84,1.14-.6.7-.59,1.41-.15,1.79l.02.02c.52.44,1.01.32,2.44-.73,1.57-1.15,2.71-1.46,3.82-.51l.02.02c1.26,1.07,1.16,2.71-.06,4.14-.79.93-1.82,1.56-3.02,1.85Z"/>
        <path class="cls-1"
              d="m182.59,163.28c-.2.08-.45.06-.66-.08-.33-.23-.41-.68-.18-1.02.12-.18.25-.26.37-.3.9-.29,1.61-.76,2.15-1.57.54-.81.51-1.57-.03-1.94h-.02c-.52-.37-1-.26-2.25.91-1.44,1.33-2.5,1.91-3.85,1h-.02c-1.25-.86-1.4-2.51-.41-3.98.63-.93,1.38-1.52,2.27-1.89.18-.09.45-.11.71.06.33.23.41.68.18,1.02-.09.13-.19.21-.32.28-.75.33-1.31.75-1.7,1.33-.52.76-.43,1.47.05,1.79h.02c.56.4,1.04.23,2.34-.98,1.43-1.31,2.53-1.75,3.74-.93h.02c1.37.94,1.44,2.58.39,4.14-.68,1.01-1.64,1.75-2.8,2.17Z"/>
        <path class="cls-1"
              d="m194.8,140.61l-6.91-2.19c-.42-.13-.64-.56-.5-.99l1.57-4.96c.12-.37.51-.57.87-.46.37.12.56.51.45.88l-1.34,4.21,2.18.69,1.16-3.66c.12-.37.51-.58.89-.46.36.11.55.51.44.88l-1.16,3.66,2.26.72,1.36-4.27c.12-.37.51-.58.87-.46.37.12.56.51.45.88l-1.59,5.02c-.14.43-.56.65-.98.52Z"/>
        <path class="cls-1"
              d="m190.58,129.43c-.43-.08-.7-.48-.62-.92l.47-2.5c.52-2.77,2.74-4.33,5.18-3.87h.02c2.44.46,3.98,2.73,3.46,5.49l-.47,2.5c-.08.44-.48.72-.91.64l-7.13-1.33Zm7.12-2.06c.34-1.85-.65-3.28-2.35-3.6h-.02c-1.7-.32-3.17.65-3.52,2.5l-.32,1.73,5.89,1.1.32-1.73Z"/>
        <path class="cls-1"
              d="m196.65,119.1l-4.36-.24c-.43-.02-.75-.39-.72-.83.02-.43.38-.76.81-.74l4.3.24c1.63.09,2.55-.71,2.63-2.12.08-1.39-.69-2.29-2.31-2.38l-4.36-.24c-.43-.02-.75-.39-.72-.84.02-.43.38-.76.81-.74l4.29.24c2.63.15,3.86,1.73,3.73,4.06-.13,2.32-1.54,3.73-4.09,3.59Z"/>
        <path class="cls-1"
              d="m196.43,108.33h-.02c-2.5.17-4.68-1.59-4.86-4.3-.09-1.38.25-2.31.79-3.13.12-.17.32-.33.6-.35.43-.03.78.29.81.73.02.22-.05.37-.12.48-.45.65-.71,1.33-.65,2.18.11,1.7,1.58,2.85,3.3,2.74h.02c1.72-.12,3.03-1.45,2.92-3.16-.06-.94-.41-1.56-.99-2.18-.11-.11-.19-.27-.21-.46-.03-.4.28-.76.67-.79.24-.02.44.09.57.22.79.79,1.3,1.72,1.4,3.16.18,2.6-1.69,4.68-4.22,4.85Z"/>
        <path class="cls-1"
              d="m198.88,97.02l-7.8-1.85c-.42-.1-.71-.37-.8-.81l-.02-.08c-.09-.44.09-.79.44-1.04l6.53-4.67c.1-.08.21-.13.3-.15.41-.08.79.17.87.58.07.36-.09.66-.38.86l-1.48,1.03.84,4.27,1.81.41c.33.07.56.3.62.62.08.4-.17.78-.56.85-.11.02-.23,0-.37-.03Zm-3.57-5.27l-3.19,2.23,3.8.86-.61-3.09Z"/>
        <path class="cls-1"
              d="m189.88,86.25l.64,2.08c.12.39-.1.79-.47.91s-.78-.09-.9-.48l-1.76-5.68c-.12-.38.1-.78.47-.9.37-.12.78.09.9.47l.65,2.09,6.38-1.97c.41-.13.84.12.97.53.13.41-.09.86-.5.98l-6.38,1.97Z"/>
        <path class="cls-1"
              d="m186.9,79.87c-.4.16-.84-.03-1.01-.45-.16-.4.02-.85.42-1.01l6.86-2.78c.4-.16.84.03,1,.43.17.42-.02.86-.41,1.02l-6.86,2.78Z"/>
        <path class="cls-1"
              d="m188.58,74h-.02c-2.2,1.17-4.94.42-6.22-2.01-1.28-2.43-.36-5.08,1.83-6.24h.02c2.19-1.17,4.94-.42,6.22,2.01,1.28,2.43.36,5.08-1.83,6.24Zm-3.6-6.82h-.02c-1.51.81-2.18,2.59-1.35,4.17.83,1.57,2.64,2.01,4.16,1.22h.02c1.51-.81,2.17-2.59,1.34-4.16-.83-1.57-2.63-2.02-4.15-1.22Z"/>
        <path class="cls-1"
              d="m179.45,65.14c-.35.25-.84.17-1.1-.19l-.1-.14c-.22-.31-.2-.6-.11-.93l2.03-6.96-4.4,3.15c-.34.24-.82.16-1.06-.18-.25-.35-.18-.83.16-1.07l6.01-4.31c.35-.25.82-.18,1.07.18l.04.05c.22.3.2.6.1.94l-2.09,7.16,4.54-3.26c.34-.24.81-.16,1.06.18.25.35.18.83-.16,1.07l-6,4.3Z"/>
        <path class="cls-1"
              d="m85.44,20.89c-.11-.48.19-.94.69-1.05.48-.11.95.18,1.06.66l.73,3.29,4.75-1.06-.73-3.29c-.11-.48.19-.94.68-1.05.5-.11.97.18,1.07.66l1.84,8.24c.11.48-.19.94-.69,1.05-.48.11-.95-.18-1.06-.66l-.75-3.35-4.75,1.06.75,3.35c.11.48-.19.94-.68,1.05-.5.11-.97-.18-1.07-.66l-1.84-8.24Z"/>
        <path class="cls-1"
              d="m98.81,22.51v-.03c-.18-2.82,1.88-5.33,5.01-5.52,3.13-.2,5.45,2,5.63,4.82v.03c.18,2.82-1.88,5.33-5.01,5.52-3.13.2-5.45-2-5.63-4.82Zm8.77-.55v-.03c-.12-1.95-1.67-3.48-3.69-3.35-2.02.13-3.33,1.81-3.21,3.75v.03c.12,1.95,1.67,3.46,3.69,3.33,2.02-.13,3.33-1.79,3.21-3.74Z"/>
        <path class="cls-1"
              d="m114.01,17.87c.04-.5.47-.85.98-.81l3.11.26c2.38.2,3.75,1.66,3.58,3.68v.03c-.19,2.25-2.12,3.27-4.36,3.08l-2.02-.17-.21,2.42c-.04.49-.47.84-.96.8-.51-.04-.87-.46-.83-.95l.71-8.33Zm3.5,4.65c1.35.12,2.26-.56,2.35-1.6v-.03c.1-1.17-.7-1.86-2.04-1.98l-2.08-.18-.31,3.61,2.08.18Z"/>
        <path class="cls-1"
              d="m124.39,27.32l1.79-8.08c.11-.49.58-.78,1.08-.67l5.79,1.29c.43.09.71.52.61.95-.1.43-.53.69-.95.6l-4.93-1.09-.57,2.55,4.29.95c.43.09.71.52.61.96-.09.42-.52.68-.95.58l-4.29-.95-.58,2.64,5,1.11c.43.09.71.52.61.94-.1.43-.53.69-.95.6l-5.87-1.3c-.5-.11-.8-.58-.69-1.07Z"/>
        <circle class="cls-5" cx="109.69" cy="109.69" r="66.88"/>
        <line class="cls-5" x1="73.42" y1="53.58" x2="50.48" y2="17.92"/>
        <line class="cls-5" x1="169.09" y1="17.92" x2="145.69" y2="53.58"/>
        <path class="cls-5"
              d="m209.12,154.3c-17.04,37.93-55.15,64.34-99.43,64.34-60.17,0-108.94-48.78-108.94-108.94,0-60.17,48.78-108.94,108.94-108.94,30.85,0,58.71,12.82,78.53,33.43"/>
        <line class="cls-4" x1="74.53" y1="71.24" x2="107.26" y2="113.66"/>
        <line class="cls-4" x1="92.83" y1="61.7" x2="108.66" y2="113.66"/>
        <line class="cls-4" x1="127.08" y1="61.95" x2="111.44" y2="113.97"/>
        <line class="cls-4" x1="143.94" y1="70.86" x2="113.08" y2="113.51"/>
        <path class="cls-4" d="m63.62,131.2v-46.5l41.7,28.36c3.31,1.26,6.48,1.32,9.51,0"/>
        <polyline class="cls-4" points="105.33 113.05 105.33 159.74 105.32 159.74 78.75 141.55"/>
        <polyline class="cls-4"
                  points="114.69 113.37 114.69 159.74 114.69 159.74 155.76 131.31 155.76 84.45 114.84 113.06"/>
        <line class="cls-4" x1="110.01" y1="58.73" x2="110.01" y2="113.97"/>
        <path class="cls-4" d="m105.33,159.74c3.41,1.18,6.55,1.27,9.36,0"/>
        <line class="cls-2" x1="195.77" y1="42.85" x2="195.77" y2="42.85"/>
        <path class="cls-3" d="m198.12,46.03c17.55,24.67,27.03,60.08,15.52,96.34"/>
        <line class="cls-2" x1="213.02" y1="144.27" x2="213.02" y2="144.27"/>
    </g>
</svg>
