<?xml version="1.0" encoding="UTF-8"?>
<svg id="Layer_2" xmlns="http://www.w3.org/2000/svg" viewBox="0 0 219.57 219.39" width="220" height="220">
    <defs>
        <style>
            .cls-1{fill:#3f55fc;}.cls-2,.cls-3,.cls-4,.cls-5{fill:none;stroke:#7119f4;stroke-linejoin:round;}.cls-2,.cls-5{stroke-width:1.5px;}.cls-3,.cls-4{stroke-width:2px;}.cls-3,.cls-4,.cls-5{stroke-linecap:round;}.cls-4{stroke-dasharray:0
            0 0 4.04;}
        </style>
    </defs>
    <g id="Layer_1-2">
        <path class="cls-1"
              d="m43.68,55.52c.35.26.43.75.16,1.12-.26.36-.75.44-1.11.18l-2.44-1.79-2.58,3.52,2.44,1.79c.35.26.43.75.16,1.11-.27.37-.76.45-1.11.19l-6.11-4.47c-.35-.26-.43-.75-.16-1.12.26-.36.75-.44,1.11-.18l2.48,1.82,2.58-3.52-2.48-1.82c-.35-.26-.43-.75-.16-1.11.27-.37.76-.45,1.11-.19l6.11,4.47Z"/>
        <path class="cls-1"
              d="m30.91,60.78l6.47,3.62c.39.22.52.7.3,1.1l-2.6,4.64c-.19.34-.63.47-.97.28-.35-.2-.46-.63-.27-.97l2.21-3.94-2.04-1.14-1.92,3.43c-.19.34-.63.47-.98.27-.34-.19-.45-.62-.26-.97l1.92-3.43-2.11-1.18-2.24,4c-.19.34-.63.47-.97.28-.35-.2-.46-.63-.27-.97l2.63-4.7c.22-.4.7-.54,1.09-.32Z"/>
        <path class="cls-1"
              d="m26.3,69.8l5.63,5.96c.3.32.4.71.23,1.14l-.03.07c-.17.42-.52.62-.96.64l-8.19.33c-.13.02-.25,0-.34-.04-.39-.16-.58-.59-.42-.99.14-.35.44-.51.81-.52l1.84-.05,1.68-4.11-1.32-1.37c-.25-.24-.31-.56-.18-.88.16-.39.58-.57.96-.41.11.04.2.12.29.23Zm.1,6.5l3.98-.11-2.77-2.86-1.21,2.97Z"/>
        <path class="cls-1"
              d="m28.95,83.17c.42.12.66.55.54.99-.12.43-.55.68-.97.56l-6.6-1.83-1.1,3.99c-.11.39-.51.62-.89.51-.38-.11-.61-.51-.5-.9l1.32-4.76c.12-.44.55-.69.98-.57l7.22,2Z"/>
        <path class="cls-1"
              d="m25.83,92.81l.39-2.19c.07-.41.46-.68.85-.6.39.07.67.45.59.86l-1.06,5.98c-.07.4-.46.66-.85.59-.39-.07-.67-.45-.6-.85l.39-2.2-6.72-1.19c-.43-.08-.71-.5-.63-.94.08-.44.48-.74.91-.66l6.72,1.19Z"/>
        <path class="cls-1"
              d="m25.48,99.87c.44.03.76.4.74.85-.03.44-.39.78-.83.75l-3.02-.17-.25,4.36,3.02.17c.44.03.76.4.74.84-.03.46-.39.79-.83.76l-7.56-.43c-.44-.03-.76-.4-.74-.85.03-.44.39-.78.83-.75l3.07.18.25-4.36-3.07-.18c-.44-.03-.76-.4-.74-.84.03-.46.39-.79.83-.76l7.56.43Z"/>
        <path class="cls-1"
              d="m22.84,125.85h.03c2.46-.63,5.01.77,5.7,3.5.69,2.72-.86,5.14-3.32,5.76h-.02c-2.46.63-5.01-.77-5.7-3.49-.69-2.72.86-5.14,3.32-5.76Zm1.94,7.64h.03c1.7-.44,2.79-2.05,2.34-3.81-.45-1.76-2.14-2.64-3.84-2.21h-.03c-1.7.44-2.78,2.04-2.33,3.8.45,1.76,2.13,2.64,3.83,2.21Z"/>
        <path class="cls-1"
              d="m29.79,136.88c.42-.17.87.03,1.04.46l1.03,2.6c.79,1.99.17,3.67-1.52,4.34h-.02c-1.88.75-3.47-.39-4.21-2.26l-.67-1.69-2.02.8c-.41.16-.86-.04-1.02-.45-.17-.43.02-.88.43-1.04l6.97-2.76Zm-2.34,4.66c.45,1.13,1.35,1.59,2.22,1.24h.02c.98-.4,1.21-1.32.77-2.44l-.69-1.74-3.02,1.19.69,1.74Z"/>
        <path class="cls-1"
              d="m33.49,145.74c.4-.21.87-.07,1.09.34l1.32,2.47c1.01,1.89.58,3.63-1.02,4.48h-.02c-1.78.96-3.49,0-4.44-1.77l-.86-1.6-1.92,1.02c-.39.21-.86.06-1.07-.33-.22-.4-.08-.88.31-1.08l6.61-3.52Zm-1.79,4.89c.57,1.07,1.52,1.43,2.35.98h.02c.93-.51,1.06-1.45.49-2.51l-.88-1.65-2.86,1.53.88,1.65Z"/>
        <path class="cls-1"
              d="m34.88,156.03l.02-.02c2.07-1.47,4.95-1.08,6.57,1.21,1.63,2.29,1.05,5.11-1.01,6.58h-.02c-2.07,1.49-4.95,1.1-6.57-1.19-1.63-2.29-1.05-5.11,1.01-6.58Zm4.56,6.42h.02c1.43-1.03,1.86-2.93.81-4.41-1.05-1.48-2.95-1.69-4.38-.67h-.02c-1.43,1.03-1.85,2.92-.8,4.4,1.05,1.48,2.94,1.69,4.37.68Z"/>
        <path class="cls-1"
              d="m45.32,163.81c.33-.31.82-.29,1.14.05l2.22,2.39c.78.84,1.15,1.73,1.13,2.55-.03.69-.33,1.34-.91,1.88l-.02.02c-1.06.98-2.28.96-3.39.31l-.4,2.77c-.03.25-.09.44-.27.6-.32.3-.8.22-1.06-.07-.25-.27-.29-.56-.23-.85l.54-3.53-1.38-1.48-1.77,1.65c-.32.3-.82.28-1.12-.05-.31-.34-.3-.83.02-1.13l5.49-5.1Zm0,5.4c.78.84,1.71.98,2.38.35l.02-.02c.71-.66.61-1.53-.19-2.41l-1.59-1.71-2.22,2.06,1.6,1.72Z"/>
        <path class="cls-1"
              d="m53.69,173.13l-1.69-1.44c-.32-.27-.35-.74-.09-1.04.26-.3.73-.34,1.04-.07l4.61,3.95c.31.26.34.73.08,1.03-.26.3-.73.35-1.03.08l-1.7-1.45-4.44,5.18c-.28.33-.79.36-1.13.07-.34-.29-.39-.79-.1-1.12l4.44-5.18Z"/>
        <path class="cls-1"
              d="m57.04,180.68l2.48-3.71c.24-.36.73-.46,1.11-.2.37.25.47.73.22,1.1l-2.45,3.66c-.93,1.39-.7,2.62.49,3.42,1.18.79,2.37.58,3.3-.79l2.49-3.71c.24-.36.73-.46,1.11-.2.37.25.47.73.23,1.1l-2.44,3.65c-1.5,2.24-3.53,2.5-5.51,1.17-1.97-1.32-2.48-3.29-1.03-5.46Z"/>
        <path class="cls-1"
              d="m68.78,182.96c.19-.39.67-.56,1.08-.36l.15.08c.35.17.47.44.54.79l1.51,7.25,2.46-4.96c.19-.38.66-.54,1.05-.34.4.2.56.67.37,1.05l-3.36,6.78c-.19.39-.65.55-1.05.36l-.06-.03c-.34-.17-.47-.44-.54-.8l-1.55-7.46-2.54,5.12c-.19.38-.66.54-1.05.34-.4-.2-.56-.67-.37-1.04l3.36-6.77Z"/>
        <path class="cls-1"
              d="m79.14,187.7c.15-.41.61-.61,1.04-.45.42.16.62.61.47,1.02l-2.68,7.08c-.15.41-.61.61-1.02.45-.43-.16-.63-.61-.48-1.02l2.68-7.08Z"/>
        <path class="cls-1"
              d="m85.67,190.73l-2.14-.61c-.4-.11-.62-.53-.52-.91s.52-.62.92-.5l5.85,1.66c.39.11.61.52.5.91-.11.38-.52.62-.91.51l-2.15-.61-1.87,6.56c-.12.42-.57.65-1,.53-.43-.12-.68-.56-.56-.98l1.87-6.56Z"/>
        <path class="cls-1"
              d="m94.8,196.98l-2.43-4.71c-.08-.17-.13-.36-.09-.58.07-.42.47-.69.92-.62.35.05.55.28.7.59l1.94,3.98,3.13-3.17c.24-.25.5-.4.84-.35.46.08.72.47.65.89-.03.21-.17.39-.31.52l-3.75,3.66-.45,2.79c-.07.43-.47.72-.92.65-.44-.07-.73-.47-.66-.9l.44-2.75Z"/>
        <path class="cls-1"
              d="m117.66,193.26c-.06-.45.25-.84.7-.9l2.77-.35c2.12-.27,3.6.75,3.83,2.55v.03c.26,2.01-1.24,3.26-3.23,3.52l-1.8.23.28,2.16c.06.43-.25.82-.69.88-.45.06-.85-.24-.9-.68l-.95-7.43Zm3.94,3.42c1.21-.15,1.87-.91,1.75-1.85v-.03c-.14-1.05-.97-1.5-2.16-1.35l-1.85.24.41,3.22,1.85-.24Z"/>
        <path class="cls-1"
              d="m127.16,191.87c-.11-.44.15-.86.59-.97l3.17-.79c1.12-.28,2.07-.17,2.78.24.59.36,1.02.94,1.21,1.7v.02c.36,1.4-.26,2.46-1.36,3.12l2.23,1.69c.2.15.34.29.4.52.11.43-.19.8-.57.9-.35.09-.62-.02-.86-.21l-2.83-2.17-1.96.49.59,2.35c.11.42-.15.85-.58.96-.44.11-.87-.14-.98-.57l-1.82-7.27Zm4.73,2.6c1.12-.28,1.68-1.03,1.46-1.92v-.03c-.24-.94-1.05-1.28-2.21-.99l-2.27.57.73,2.94,2.28-.57Z"/>
        <path class="cls-1"
              d="m138.03,192.88v-.02c-.94-2.36.13-5.06,2.74-6.1,2.61-1.03,5.21.2,6.14,2.56v.03c.94,2.36-.13,5.06-2.74,6.09-2.61,1.03-5.21-.2-6.14-2.56Zm7.33-2.89v-.02c-.65-1.63-2.39-2.51-4.08-1.84s-2.34,2.46-1.7,4.09v.02c.65,1.63,2.38,2.49,4.07,1.83,1.69-.67,2.35-2.45,1.71-4.08Z"/>
        <path class="cls-1"
              d="m149.48,188.12v-.02c-1.25-2.2-.58-5.02,1.82-6.37,1.2-.67,2.15-.84,3.17-.73.19.03.45.13.6.4.21.37.08.86-.31,1.08-.18.1-.36.1-.52.09-.72-.08-1.42-.02-2.28.47-1.47.83-1.87,2.72-1.03,4.22v.02c.92,1.62,2.67,2.2,4.3,1.28.75-.42,1.3-1.04,1.59-1.68l-.82-1.47-1.57.88c-.34.19-.77.09-.96-.24s-.06-.77.29-.96l2.22-1.25c.4-.22.88-.09,1.1.3l1.18,2.1c.22.39.22.76,0,1.15-.43.83-1.16,1.78-2.36,2.45-2.49,1.4-5.12.57-6.4-1.72Z"/>
        <path class="cls-1"
              d="m157.67,178.96c-.27-.36-.19-.85.17-1.12l2.62-1.95c.92-.69,1.85-.95,2.66-.85.68.1,1.3.48,1.77,1.11v.02c.87,1.16.71,2.37-.05,3.4l2.7.7c.24.06.43.13.57.33.26.35.13.82-.18,1.05-.29.22-.58.22-.88.14l-3.45-.92-1.63,1.21,1.44,1.94c.26.35.19.84-.17,1.11-.37.27-.86.21-1.12-.15l-4.47-6.02Zm5.37.58c.92-.68,1.16-1.6.61-2.33l-.02-.02c-.58-.78-1.46-.78-2.41-.07l-1.88,1.4,1.8,2.43,1.89-1.4Z"/>
        <path class="cls-1"
              d="m170.98,177.98l-5.09-5.39c-.31-.33-.29-.82.04-1.14l3.87-3.65c.28-.27.74-.26,1.01.02.27.29.25.74-.04,1.01l-3.29,3.1,1.61,1.7,2.86-2.7c.28-.27.74-.26,1.02.03.26.28.24.73-.05,1l-2.86,2.7,1.66,1.76,3.33-3.15c.29-.27.74-.26,1.01.02.27.29.25.74-.04,1.01l-3.91,3.69c-.33.31-.83.3-1.14-.03Z"/>
        <path class="cls-1"
              d="m178.15,170.64c-.22.06-.47.01-.66-.15-.31-.26-.34-.73-.07-1.05.14-.17.29-.24.41-.27.94-.2,1.72-.6,2.36-1.35.64-.76.69-1.54.18-1.97l-.02-.02c-.49-.42-.99-.36-2.38.68-1.61,1.19-2.75,1.66-4.02.58l-.02-.02c-1.18-1-1.15-2.69.03-4.07.74-.88,1.57-1.39,2.51-1.67.2-.07.47-.06.71.14.31.27.34.73.07,1.05-.1.12-.22.19-.36.24-.8.25-1.42.62-1.88,1.16-.61.72-.6,1.44-.15,1.83l.02.02c.53.45,1.04.33,2.49-.75,1.6-1.18,2.77-1.49,3.9-.53l.02.02c1.29,1.09,1.18,2.77-.06,4.23-.8.95-1.86,1.59-3.08,1.89Z"/>
        <path class="cls-1"
              d="m184.52,162.83c-.21.08-.46.07-.68-.08-.34-.23-.42-.69-.18-1.04.12-.18.26-.27.38-.31.92-.3,1.65-.78,2.2-1.6.56-.82.52-1.6-.03-1.98l-.02-.02c-.53-.36-1.03-.25-2.3.94-1.47,1.36-2.56,1.95-3.93,1.02l-.02-.02c-1.28-.86-1.43-2.55-.42-4.05.64-.95,1.41-1.56,2.32-1.94.19-.09.46-.11.72.06.34.23.42.69.18,1.04-.09.13-.19.22-.33.28-.77.33-1.34.77-1.74,1.36-.53.78-.44,1.5.05,1.83l.02.02c.58.39,1.07.21,2.39-1.02,1.47-1.34,2.59-1.79,3.83-.95h.02c1.4.96,1.48,2.64.4,4.23-.69,1.03-1.67,1.79-2.86,2.21Z"/>
        <path class="cls-1"
              d="m197,139.65l-7.07-2.24c-.43-.14-.65-.58-.52-1.01l1.61-5.07c.12-.37.52-.59.89-.47.38.12.58.53.46.9l-1.37,4.31,2.23.71,1.19-3.75c.12-.38.52-.59.9-.47.37.12.56.52.44.9l-1.19,3.75,2.31.73,1.39-4.37c.12-.37.52-.59.89-.47.38.12.58.52.46.9l-1.63,5.13c-.14.44-.58.67-1.01.53Z"/>
        <path class="cls-1"
              d="m192.69,128.22c-.44-.08-.72-.49-.64-.94l.48-2.56c.53-2.83,2.8-4.42,5.29-3.96h.03c2.49.47,4.06,2.79,3.54,5.61l-.48,2.56c-.08.45-.49.73-.93.65l-7.29-1.36Zm7.28-2.11c.35-1.89-.67-3.36-2.4-3.68h-.03c-1.73-.33-3.24.67-3.59,2.55l-.33,1.77,6.02,1.13.33-1.77Z"/>
        <path class="cls-1"
              d="m198.89,117.66l-4.46-.25c-.44-.03-.76-.4-.74-.85.02-.44.39-.78.83-.75l4.4.25c1.67.09,2.61-.73,2.69-2.17.08-1.42-.71-2.34-2.36-2.44l-4.46-.25c-.44-.03-.76-.4-.74-.85.03-.44.39-.78.83-.75l4.38.25c2.69.15,3.95,1.77,3.82,4.15-.13,2.38-1.57,3.81-4.18,3.67Z"/>
        <path class="cls-1"
              d="m198.67,106.65h-.03c-2.56.17-4.78-1.63-4.97-4.39-.1-1.41.25-2.36.8-3.2.12-.18.33-.34.61-.36.44-.03.79.3.82.74.01.22-.05.38-.12.49-.46.66-.72,1.36-.66,2.23.12,1.73,1.62,2.92,3.38,2.8h.03c1.76-.12,3.1-1.48,2.98-3.23-.07-.97-.42-1.6-1.02-2.22-.11-.11-.2-.27-.21-.47-.03-.4.28-.78.68-.81.24-.02.44.09.58.22.8.81,1.33,1.76,1.43,3.23.18,2.66-1.73,4.78-4.31,4.96Z"/>
        <path class="cls-1"
              d="m201.17,95.09l-7.98-1.89c-.43-.1-.73-.38-.82-.82v-.08c-.1-.45.08-.8.43-1.06l6.67-4.78c.1-.09.21-.13.31-.15.42-.08.81.18.89.6.07.37-.09.67-.39.88l-1.51,1.06.85,4.36,1.85.42c.34.07.57.3.64.63.08.41-.17.79-.58.87-.11.02-.23,0-.37-.03Zm-3.65-5.38l-3.26,2.28,3.88.87-.62-3.15Z"/>
        <path class="cls-1"
              d="m191.97,84.08l.66,2.12c.12.4-.1.81-.48.93-.38.12-.8-.09-.92-.5l-1.8-5.8c-.12-.39.1-.8.48-.92.38-.12.8.1.92.48l.66,2.13,6.52-2.02c.42-.13.86.12.99.54.13.42-.09.88-.51,1.01l-6.52,2.01Z"/>
        <path class="cls-1"
              d="m188.93,77.56c-.41.16-.86-.03-1.03-.46-.17-.41.02-.87.43-1.03l7.01-2.84c.41-.16.86.03,1.03.44.17.42-.02.88-.42,1.05l-7.01,2.84Z"/>
        <path class="cls-1"
              d="m190.64,71.55h-.02c-2.24,1.2-5.05.43-6.36-2.05-1.31-2.48-.37-5.2,1.87-6.38h.02c2.24-1.2,5.05-.43,6.36,2.05,1.31,2.48.37,5.2-1.87,6.38Zm-3.68-6.97h-.02c-1.55.83-2.23,2.65-1.38,4.26.85,1.61,2.7,2.06,4.25,1.24h.02c1.55-.83,2.22-2.65,1.37-4.25-.85-1.61-2.69-2.07-4.24-1.25Z"/>
        <path class="cls-1"
              d="m181.31,62.5c-.36.25-.85.18-1.12-.19l-.1-.14c-.23-.32-.2-.61-.11-.95l2.07-7.11-4.5,3.22c-.35.25-.83.16-1.09-.19-.26-.36-.18-.85.16-1.1l6.15-4.41c.36-.25.84-.18,1.1.18l.04.05c.22.31.2.61.1.96l-2.13,7.32,4.64-3.33c.35-.25.83-.16,1.08.19.26.36.18.85-.16,1.1l-6.14,4.4Z"/>
        <path class="cls-1"
              d="m85.63,19.64c-.11-.48.19-.94.69-1.05.48-.11.95.18,1.06.66l.73,3.29,4.75-1.06-.73-3.29c-.11-.48.19-.94.68-1.05.5-.11.97.18,1.07.66l1.84,8.24c.11.48-.19.94-.69,1.05-.48.11-.95-.18-1.06-.66l-.75-3.35-4.75,1.06.75,3.35c.11.48-.19.94-.68,1.05-.5.11-.97-.18-1.07-.66l-1.84-8.24Z"/>
        <path class="cls-1"
              d="m99,21.26v-.03c-.18-2.82,1.88-5.33,5.01-5.52,3.13-.2,5.45,2,5.63,4.82v.03c.18,2.82-1.88,5.33-5.01,5.52-3.13.2-5.45-2-5.63-4.82Zm8.77-.55v-.03c-.12-1.95-1.67-3.48-3.69-3.35-2.02.13-3.33,1.81-3.21,3.75v.03c.12,1.95,1.66,3.46,3.69,3.33,2.02-.13,3.33-1.79,3.21-3.74Z"/>
        <path class="cls-1"
              d="m114.2,16.62c.04-.5.47-.85.98-.81l3.11.26c2.38.2,3.75,1.66,3.58,3.68v.03c-.19,2.25-2.12,3.27-4.36,3.08l-2.02-.17-.21,2.42c-.04.49-.47.84-.96.8-.51-.04-.87-.46-.83-.95l.71-8.33Zm3.5,4.65c1.35.12,2.26-.56,2.35-1.6v-.03c.1-1.17-.7-1.86-2.04-1.98l-2.08-.18-.31,3.61,2.08.18Z"/>
        <path class="cls-1"
              d="m124.57,26.07l1.79-8.08c.11-.49.58-.78,1.08-.67l5.79,1.29c.43.09.71.52.61.95-.1.43-.53.69-.95.6l-4.93-1.09-.57,2.55,4.29.95c.43.09.71.52.61.96-.09.42-.52.68-.95.58l-4.29-.95-.58,2.64,5,1.11c.43.09.71.52.61.94-.1.43-.53.69-.95.6l-5.87-1.3c-.5-.11-.8-.58-.69-1.07Z"/>
        <circle class="cls-5" cx="109.88" cy="109.69" r="66.88"/>
        <line class="cls-2" x1="73.6" y1="52.33" x2="50.67" y2="16.67"/>
        <line class="cls-2" x1="169.27" y1="16.67" x2="145.88" y2="52.33"/>
        <path class="cls-5"
              d="m83.21,105.79h14.58c1.8,0,3.26-1.46,3.26-3.26v-11.32c0-1.8,1.46-3.26,3.26-3.26h11.04c1.8,0,3.26,1.46,3.26,3.26v11.32c0,1.8,1.46,3.26,3.26,3.26h11.32c1.8,0,3.26,1.46,3.26,3.26v11.04c0,1.8-1.46,3.26-3.26,3.26h-11.32c-1.8,0-3.26,1.46-3.26,3.26v11.32c0,1.8-1.46,3.26-3.26,3.26h-11.04c-1.8,0-3.26-1.46-3.26-3.26v-11.32c0-1.8-1.46-3.26-3.26-3.26h-14.58c-11.65,0-21.77-9.53-21.77-23.12,0-30.14,32.56-40.09,48.44-20.72,15.88-19.37,48.44-9.42,48.44,20.72,0,34.44-48.44,58.93-48.44,58.93l-.83-.41c-2.95-1.58-13.74-7.61-24.31-16.9"/>
        <path class="cls-5"
              d="m29.79,35.84C49.69,14.26,78.21.75,109.88.75c60.17,0,108.94,48.78,108.94,108.94,0,60.17-48.78,108.94-108.94,108.94-58.6,0-106.4-46.27-108.85-104.28"/>
        <line class="cls-3" x1="1" y1="105.87" x2="1" y2="105.87"/>
        <path class="cls-4" d="m1.21,101.83c0-.08.01-.15.02-.23,1.54-20.95,9-40.26,20.73-56.25.32-.44.65-.88.98-1.32"/>
        <line class="cls-3" x1="24.17" y1="42.43" x2="24.17" y2="42.43"/>
    </g>
</svg>
