<?xml version="1.0" encoding="UTF-8"?>
<svg id="Layer_2" xmlns="http://www.w3.org/2000/svg" viewBox="0 0 219.39 219.39" width="220" height="220">
    <defs>
        <style>
            .cls-1{stroke-width:1.44px;}.cls-1,.cls-2,.cls-3{fill:none;stroke:#7119f4;stroke-linejoin:round;}.cls-1,.cls-3{stroke-linecap:round;}.cls-4{fill:#3f55fc;}.cls-2,.cls-3{stroke-width:1.5px;}
        </style>
    </defs>
    <g id="Layer_1-2">
        <path class="cls-3"
              d="m76.08,84.94h5.24c.65,0,1.17-.53,1.17-1.17v-4.07c0-.65.53-1.17,1.17-1.17h3.97c.65,0,1.17.53,1.17,1.17v4.07c0,.65.53,1.17,1.17,1.17h4.07c.65,0,1.17.53,1.17,1.17v3.97c0,.65-.53,1.17-1.17,1.17h-4.07c-.65,0-1.17.53-1.17,1.17v4.07c0,.65-.53,1.17-1.17,1.17h-3.97c-.65,0-1.17-.53-1.17-1.17v-4.07c0-.65-.53-1.17-1.17-1.17h-5.24c-4.19,0-7.83-3.43-7.83-8.32,0-10.84,11.71-14.42,17.42-7.45,5.71-6.97,17.42-3.39,17.42,7.45,0,12.39-17.42,21.2-17.42,21.2l-.3-.15c-1.06-.57-4.94-2.74-8.74-6.08"/>
        <path class="cls-4"
              d="m44.11,57.46c.35.25.42.74.15,1.11-.26.36-.74.43-1.09.18l-2.42-1.77-2.55,3.49,2.42,1.77c.35.26.42.74.16,1.1-.27.37-.75.44-1.1.19l-6.05-4.42c-.35-.26-.42-.74-.15-1.11.26-.36.74-.43,1.09-.18l2.46,1.8,2.55-3.49-2.46-1.8c-.35-.25-.42-.74-.16-1.1.27-.36.75-.44,1.1-.19l6.05,4.43Z"/>
        <path class="cls-4"
              d="m31.46,62.66l6.41,3.59c.39.22.52.69.3,1.09l-2.57,4.59c-.19.34-.63.47-.96.28-.34-.19-.45-.63-.26-.96l2.19-3.91-2.02-1.13-1.9,3.4c-.19.34-.63.47-.97.27-.33-.19-.44-.62-.25-.96l1.9-3.4-2.09-1.17-2.22,3.96c-.19.34-.63.46-.96.28-.34-.19-.45-.62-.26-.96l2.6-4.65c.22-.39.69-.53,1.08-.31Z"/>
        <path class="cls-4"
              d="m26.9,71.6l5.57,5.9c.3.32.4.71.23,1.13l-.03.07c-.17.42-.51.62-.95.63l-8.11.33c-.13.02-.25,0-.34-.04-.39-.16-.57-.58-.41-.98.14-.35.44-.5.8-.51l1.82-.05,1.66-4.07-1.3-1.36c-.25-.24-.31-.56-.18-.87.16-.38.57-.56.95-.41.11.04.2.12.29.23Zm.1,6.44l3.94-.11-2.74-2.83-1.2,2.95Z"/>
        <path class="cls-4"
              d="m29.52,84.84c.42.12.66.54.54.98-.12.42-.54.67-.96.55l-6.54-1.81-1.09,3.95c-.11.39-.5.61-.88.51-.38-.11-.6-.5-.5-.89l1.3-4.71c.12-.44.55-.68.98-.56l7.15,1.98Z"/>
        <path class="cls-4"
              d="m26.43,94.38l.38-2.17c.07-.41.45-.67.84-.6.39.07.66.45.59.85l-1.05,5.92c-.07.39-.45.66-.84.59-.39-.07-.66-.45-.59-.84l.38-2.18-6.66-1.18c-.43-.08-.7-.49-.63-.93.08-.43.48-.73.91-.65l6.66,1.18Z"/>
        <path class="cls-4"
              d="m26.09,101.38c.43.02.76.39.73.85-.03.44-.39.77-.82.74l-2.99-.17-.25,4.32,2.99.17c.43.02.76.39.73.83-.03.45-.39.78-.82.76l-7.49-.43c-.43-.02-.76-.39-.73-.85.03-.44.39-.77.82-.74l3.04.17.25-4.32-3.04-.17c-.43-.02-.76-.39-.73-.83.03-.45.39-.78.82-.76l7.49.43Z"/>
        <path class="cls-4"
              d="m23.47,127.1h.02c2.43-.62,4.96.77,5.64,3.46.68,2.69-.85,5.09-3.29,5.7h-.02c-2.43.62-4.96-.76-5.64-3.46-.68-2.69.85-5.09,3.29-5.71Zm1.92,7.56h.02c1.68-.43,2.76-2.03,2.32-3.77-.44-1.74-2.12-2.61-3.8-2.19h-.02c-1.68.43-2.75,2.02-2.31,3.77s2.11,2.61,3.79,2.19Z"/>
        <path class="cls-4"
              d="m30.35,138.03c.41-.16.86.03,1.03.46l1.02,2.58c.78,1.97.17,3.64-1.51,4.3h-.02c-1.86.75-3.43-.38-4.17-2.24l-.66-1.67-2,.79c-.4.16-.85-.04-1.01-.45-.17-.42.02-.87.43-1.03l6.9-2.73Zm-2.31,4.62c.44,1.12,1.34,1.57,2.2,1.23h.02c.97-.39,1.2-1.3.76-2.41l-.68-1.72-2.99,1.18.68,1.72Z"/>
        <path class="cls-4"
              d="m34.02,146.8c.39-.21.86-.07,1.08.34l1.31,2.44c1,1.87.58,3.59-1.01,4.44h-.02c-1.77.95-3.46,0-4.4-1.75l-.85-1.59-1.9,1.01c-.38.2-.85.06-1.06-.33-.21-.4-.07-.87.31-1.07l6.55-3.49Zm-1.77,4.85c.57,1.06,1.51,1.41,2.33.97h.02c.92-.5,1.05-1.43.49-2.49l-.87-1.63-2.83,1.51.87,1.63Z"/>
        <path class="cls-4"
              d="m35.39,156.99l.02-.02c2.05-1.46,4.9-1.07,6.51,1.2,1.61,2.27,1.04,5.06-1,6.51h-.02c-2.05,1.47-4.9,1.09-6.51-1.18-1.61-2.27-1.04-5.06,1-6.51Zm4.52,6.36h.02c1.41-1.02,1.84-2.9.8-4.36-1.04-1.47-2.92-1.67-4.33-.66h-.02c-1.41,1.02-1.83,2.89-.79,4.36,1.04,1.47,2.91,1.68,4.32.67Z"/>
        <path class="cls-4"
              d="m45.73,164.7c.33-.3.82-.28,1.13.05l2.2,2.37c.77.84,1.14,1.71,1.12,2.52-.03.68-.33,1.33-.9,1.86l-.02.02c-1.05.97-2.25.95-3.35.31l-.4,2.74c-.03.24-.09.43-.26.6-.32.29-.79.22-1.05-.07-.25-.27-.28-.55-.23-.85l.53-3.5-1.36-1.47-1.76,1.63c-.32.29-.81.27-1.11-.05-.31-.33-.29-.82.02-1.12l5.44-5.05Zm0,5.35c.77.84,1.7.97,2.36.35l.02-.02c.7-.65.61-1.52-.19-2.38l-1.58-1.7-2.2,2.04,1.58,1.71Z"/>
        <path class="cls-4"
              d="m54.02,173.92l-1.67-1.43c-.31-.27-.34-.73-.09-1.03.26-.3.72-.34,1.03-.07l4.57,3.91c.3.26.33.72.08,1.02-.26.3-.72.34-1.02.08l-1.68-1.44-4.4,5.13c-.28.33-.78.35-1.12.07-.33-.29-.38-.78-.1-1.11l4.4-5.13Z"/>
        <path class="cls-4"
              d="m57.34,181.4l2.46-3.68c.24-.36.72-.45,1.1-.2.37.25.46.73.22,1.09l-2.43,3.62c-.92,1.38-.69,2.59.49,3.38,1.17.79,2.35.58,3.27-.79l2.46-3.68c.24-.36.72-.45,1.1-.2.37.25.46.73.22,1.09l-2.42,3.61c-1.48,2.21-3.49,2.48-5.46,1.16-1.96-1.31-2.46-3.26-1.02-5.41Z"/>
        <path class="cls-4"
              d="m68.96,183.66c.19-.39.66-.55,1.07-.35l.15.07c.35.17.46.44.54.78l1.5,7.18,2.43-4.91c.19-.38.65-.53,1.04-.34.39.2.55.66.37,1.04l-3.33,6.72c-.19.39-.65.55-1.04.35l-.06-.03c-.34-.17-.46-.44-.53-.79l-1.54-7.39-2.51,5.07c-.19.38-.65.53-1.04.34-.4-.2-.55-.66-.37-1.03l3.32-6.71Z"/>
        <path class="cls-4"
              d="m79.22,188.36c.15-.4.6-.6,1.03-.44.41.16.62.6.46,1.01l-2.65,7.01c-.15.4-.6.6-1.01.45-.42-.16-.63-.61-.47-1.01l2.65-7.01Z"/>
        <path class="cls-4"
              d="m85.69,191.35l-2.12-.6c-.4-.11-.62-.52-.51-.9s.51-.61.91-.5l5.79,1.65c.39.11.61.52.5.9-.11.38-.51.61-.9.5l-2.13-.61-1.85,6.5c-.12.42-.56.65-.99.53-.42-.12-.68-.55-.56-.97l1.85-6.49Z"/>
        <path class="cls-4"
              d="m94.73,197.54l-2.41-4.66c-.08-.17-.13-.36-.09-.57.07-.41.46-.69.91-.61.34.05.54.28.69.59l1.92,3.94,3.1-3.14c.24-.25.5-.4.83-.34.46.07.71.46.64.88-.03.21-.17.38-.31.52l-3.72,3.63-.44,2.76c-.07.43-.47.71-.92.64-.43-.07-.72-.47-.66-.89l.44-2.72Z"/>
        <path class="cls-4"
              d="m117.37,193.85c-.06-.44.25-.83.7-.89l2.75-.35c2.1-.27,3.56.74,3.79,2.52v.02c.26,1.99-1.23,3.23-3.2,3.48l-1.78.23.27,2.14c.06.43-.25.82-.68.87-.45.06-.84-.24-.89-.67l-.94-7.36Zm3.9,3.38c1.19-.15,1.85-.9,1.74-1.83v-.02c-.14-1.04-.96-1.49-2.14-1.33l-1.83.23.41,3.19,1.83-.24Z"/>
        <path class="cls-4"
              d="m126.77,192.48c-.11-.43.15-.85.59-.96l3.14-.78c1.1-.28,2.05-.17,2.75.23.58.35,1.01.93,1.19,1.69v.02c.35,1.39-.25,2.43-1.34,3.09l2.2,1.67c.2.15.34.28.4.52.11.42-.19.8-.56.89-.35.09-.62-.02-.85-.21l-2.8-2.15-1.95.48.58,2.33c.11.42-.15.84-.58.95-.44.11-.86-.14-.97-.56l-1.8-7.2Zm4.68,2.58c1.11-.28,1.67-1.02,1.45-1.9v-.02c-.24-.93-1.04-1.27-2.18-.98l-2.25.56.73,2.91,2.26-.56Z"/>
        <path class="cls-4"
              d="m137.54,193.48v-.02c-.93-2.34.13-5.01,2.71-6.04,2.59-1.02,5.16.2,6.08,2.53v.02c.93,2.34-.13,5.01-2.71,6.04-2.59,1.02-5.16-.2-6.08-2.53Zm7.26-2.87v-.02c-.65-1.61-2.37-2.48-4.04-1.82s-2.32,2.44-1.68,4.05v.02c.64,1.61,2.36,2.47,4.03,1.81,1.67-.66,2.33-2.43,1.69-4.04Z"/>
        <path class="cls-4"
              d="m148.88,188.76v-.02c-1.23-2.18-.58-4.97,1.8-6.31,1.18-.66,2.13-.83,3.14-.73.19.02.44.13.59.4.21.37.08.85-.31,1.06-.18.1-.36.1-.52.09-.71-.08-1.4-.02-2.26.47-1.46.82-1.86,2.69-1.02,4.18v.02c.91,1.6,2.64,2.18,4.26,1.27.74-.42,1.29-1.03,1.57-1.66l-.82-1.46-1.56.88c-.34.19-.76.09-.95-.24s-.05-.76.28-.95l2.2-1.24c.4-.22.87-.09,1.09.29l1.17,2.08c.22.39.22.75,0,1.14-.43.83-1.15,1.76-2.33,2.42-2.47,1.39-5.07.57-6.34-1.7Z"/>
        <path class="cls-4"
              d="m156.99,179.7c-.27-.36-.19-.84.17-1.11l2.6-1.93c.91-.68,1.83-.94,2.63-.84.67.1,1.29.47,1.75,1.1v.02c.87,1.15.71,2.34-.05,3.37l2.68.7c.24.06.42.13.57.33.26.35.13.81-.18,1.04-.29.22-.58.22-.87.14l-3.42-.91-1.61,1.2,1.43,1.92c.26.35.18.83-.17,1.1-.36.27-.85.2-1.11-.15l-4.42-5.96Zm5.31.58c.91-.68,1.15-1.58.61-2.31l-.02-.02c-.57-.77-1.44-.77-2.39-.07l-1.86,1.38,1.79,2.4,1.87-1.39Z"/>
        <path class="cls-4"
              d="m170.17,178.73l-5.04-5.34c-.31-.32-.29-.81.04-1.12l3.83-3.61c.28-.27.74-.26,1,.02.27.29.25.73-.04,1l-3.25,3.07,1.59,1.69,2.83-2.67c.28-.26.74-.25,1.01.03.26.28.24.72-.05.99l-2.83,2.67,1.64,1.74,3.3-3.12c.28-.27.74-.26,1,.02.27.29.25.73-.04,1l-3.88,3.66c-.33.31-.82.3-1.13-.02Z"/>
        <path class="cls-4"
              d="m177.27,171.46c-.21.06-.46.01-.66-.15-.31-.26-.34-.73-.07-1.04.14-.17.28-.24.41-.26.93-.19,1.7-.59,2.34-1.34.64-.75.69-1.52.18-1.95l-.02-.02c-.49-.41-.98-.36-2.36.68-1.6,1.17-2.73,1.64-3.98.58l-.02-.02c-1.17-.99-1.14-2.66.02-4.03.74-.87,1.55-1.38,2.49-1.66.19-.07.47-.06.7.14.31.26.34.73.07,1.04-.1.12-.21.19-.36.24-.79.24-1.4.61-1.86,1.15-.6.71-.59,1.43-.15,1.81l.02.02c.53.45,1.03.33,2.47-.74,1.59-1.16,2.74-1.48,3.87-.52l.02.02c1.27,1.08,1.17,2.74-.06,4.19-.79.94-1.84,1.58-3.05,1.87Z"/>
        <path class="cls-4"
              d="m183.57,163.73c-.21.08-.46.07-.67-.08-.34-.23-.41-.69-.18-1.03.12-.18.26-.26.38-.31.91-.29,1.63-.77,2.18-1.59.55-.82.52-1.59-.03-1.96l-.02-.02c-.53-.36-1.02-.25-2.27.93-1.46,1.34-2.53,1.93-3.9,1.01l-.02-.02c-1.27-.86-1.42-2.52-.41-4.01.64-.94,1.39-1.54,2.29-1.92.19-.09.46-.11.71.06.34.23.41.69.18,1.03-.09.13-.19.21-.33.28-.76.33-1.33.76-1.73,1.35-.52.77-.44,1.49.05,1.81l.02.02c.57.38,1.06.21,2.37-1.01,1.45-1.33,2.56-1.77,3.79-.94h.02c1.38.95,1.46,2.61.4,4.19-.69,1.02-1.66,1.77-2.83,2.19Z"/>
        <path class="cls-4"
              d="m195.93,140.77l-7-2.22c-.43-.13-.65-.57-.51-1l1.59-5.02c.12-.37.52-.58.88-.47.38.12.57.52.45.89l-1.35,4.27,2.21.7,1.18-3.71c.12-.37.52-.58.9-.46.36.11.56.52.44.89l-1.18,3.71,2.28.73,1.37-4.33c.12-.37.52-.58.88-.47.38.12.57.52.45.89l-1.61,5.08c-.14.43-.57.66-1,.52Z"/>
        <path class="cls-4"
              d="m191.67,129.45c-.44-.08-.71-.49-.63-.93l.47-2.53c.52-2.8,2.77-4.38,5.24-3.92h.02c2.47.47,4.02,2.76,3.5,5.56l-.47,2.53c-.08.44-.49.73-.92.64l-7.22-1.35Zm7.21-2.09c.35-1.87-.66-3.32-2.38-3.64h-.02c-1.72-.33-3.21.66-3.56,2.53l-.33,1.76,5.96,1.12.33-1.76Z"/>
        <path class="cls-4"
              d="m197.8,119l-4.42-.25c-.43-.02-.76-.39-.73-.84.02-.44.39-.77.82-.75l4.35.24c1.65.09,2.58-.72,2.66-2.15.08-1.41-.7-2.32-2.34-2.41l-4.42-.25c-.43-.02-.76-.39-.73-.85.02-.44.39-.77.82-.75l4.34.24c2.66.15,3.91,1.75,3.78,4.11-.13,2.35-1.55,3.78-4.14,3.63Z"/>
        <path class="cls-4"
              d="m197.58,108.09h-.03c-2.53.17-4.74-1.61-4.92-4.35-.09-1.4.25-2.34.8-3.17.12-.18.32-.33.6-.35.43-.03.79.3.82.74.01.22-.05.38-.12.49-.45.65-.71,1.35-.66,2.21.12,1.72,1.6,2.89,3.34,2.77h.03c1.74-.12,3.07-1.47,2.95-3.2-.07-.96-.41-1.58-1.01-2.2-.11-.11-.2-.27-.21-.47-.03-.4.28-.77.67-.8.24-.02.44.09.58.22.8.8,1.32,1.74,1.42,3.2.18,2.63-1.71,4.73-4.27,4.91Z"/>
        <path class="cls-4"
              d="m200.06,96.64l-7.9-1.88c-.42-.1-.72-.37-.81-.82v-.08c-.1-.45.08-.8.43-1.05l6.61-4.73c.1-.09.21-.13.31-.15.41-.08.8.17.88.59.07.37-.09.66-.39.87l-1.5,1.05.85,4.32,1.83.42c.34.07.56.3.63.63.08.41-.17.79-.57.86-.11.02-.23,0-.37-.03Zm-3.62-5.33l-3.23,2.26,3.84.87-.61-3.12Z"/>
        <path class="cls-4"
              d="m190.95,85.74l.65,2.1c.12.39-.1.8-.48.92-.38.12-.79-.09-.91-.49l-1.78-5.75c-.12-.38.1-.79.48-.91.38-.12.79.09.91.48l.65,2.11,6.46-2c.41-.13.85.12.98.54.13.42-.09.87-.51,1l-6.46,1.99Z"/>
        <path class="cls-4"
              d="m187.94,79.28c-.4.16-.85-.03-1.02-.45-.17-.41.02-.86.42-1.02l6.95-2.81c.4-.16.85.03,1.02.44.17.42-.02.87-.42,1.04l-6.95,2.81Z"/>
        <path class="cls-4"
              d="m189.63,73.34h-.02c-2.22,1.18-5,.43-6.3-2.03-1.3-2.46-.37-5.15,1.85-6.32h.02c2.22-1.18,5-.43,6.3,2.03,1.3,2.46.37,5.15-1.85,6.32Zm-3.64-6.9h-.02c-1.53.82-2.21,2.63-1.37,4.22.84,1.59,2.68,2.04,4.21,1.23h.02c1.53-.82,2.2-2.62,1.36-4.21-.84-1.59-2.67-2.05-4.2-1.24Z"/>
        <path class="cls-4"
              d="m180.4,64.37c-.35.25-.85.18-1.11-.19l-.1-.14c-.23-.32-.2-.61-.11-.94l2.05-7.05-4.45,3.19c-.34.25-.83.16-1.07-.19-.26-.36-.18-.84.16-1.09l6.09-4.36c.35-.25.83-.18,1.08.18l.04.05c.22.3.2.61.1.95l-2.11,7.25,4.6-3.3c.34-.25.83-.16,1.07.19.26.36.18.84-.16,1.09l-6.08,4.36Z"/>
        <path class="cls-4"
              d="m85.44,20.89c-.11-.48.19-.94.69-1.05.48-.11.95.18,1.06.66l.73,3.29,4.75-1.06-.73-3.29c-.11-.48.19-.94.68-1.05.5-.11.97.18,1.07.66l1.84,8.24c.11.48-.19.94-.69,1.05-.48.11-.95-.18-1.06-.66l-.75-3.35-4.75,1.06.75,3.35c.11.48-.19.94-.68,1.05-.5.11-.97-.18-1.07-.66l-1.84-8.24Z"/>
        <path class="cls-4"
              d="m98.81,22.51v-.03c-.18-2.82,1.88-5.33,5.01-5.52,3.13-.2,5.45,2,5.63,4.82v.03c.18,2.82-1.88,5.33-5.01,5.52-3.13.2-5.45-2-5.63-4.82Zm8.77-.55v-.03c-.12-1.95-1.67-3.48-3.69-3.35-2.02.13-3.33,1.81-3.21,3.75v.03c.12,1.95,1.66,3.46,3.69,3.33,2.02-.13,3.33-1.79,3.21-3.74Z"/>
        <path class="cls-4"
              d="m114.01,17.87c.04-.5.47-.85.98-.81l3.11.26c2.38.2,3.75,1.66,3.58,3.68v.03c-.19,2.25-2.12,3.27-4.36,3.08l-2.02-.17-.21,2.42c-.04.49-.47.84-.96.8-.51-.04-.87-.46-.83-.95l.71-8.33Zm3.5,4.65c1.35.12,2.26-.56,2.35-1.6v-.03c.1-1.17-.7-1.86-2.04-1.98l-2.08-.18-.31,3.61,2.08.18Z"/>
        <path class="cls-4"
              d="m124.39,27.32l1.79-8.08c.11-.49.58-.78,1.08-.67l5.79,1.29c.43.09.71.52.61.95-.1.43-.53.69-.95.6l-4.93-1.09-.57,2.55,4.29.95c.43.09.71.52.61.96-.09.42-.52.68-.95.58l-4.29-.95-.58,2.64,5,1.11c.43.09.71.52.61.94-.1.43-.53.69-.95.6l-5.87-1.3c-.5-.11-.8-.58-.69-1.07Z"/>
        <circle class="cls-3" cx="109.69" cy="110.95" r="66.88"/>
        <line class="cls-2" x1="73.42" y1="53.58" x2="50.48" y2="17.92"/>
        <line class="cls-2" x1="169.09" y1="17.92" x2="145.69" y2="53.58"/>
        <circle class="cls-3" cx="109.69" cy="109.69" r="108.94"/>
        <polyline class="cls-3" points="68.67 136.71 85.67 119.35 102.67 136.71"/>
        <polyline class="cls-3" points="73.57 141.72 85.67 129.36 97.77 141.72"/>
        <polyline class="cls-3" points="78.53 146.78 85.67 139.48 92.81 146.78"/>
        <line class="cls-3" x1="85.67" y1="139.62" x2="85.67" y2="154.21"/>
        <line class="cls-3" x1="120.95" y1="123.58" x2="132.01" y2="137.91"/>
        <line class="cls-3" x1="127.14" y1="120.35" x2="132.48" y2="137.91"/>
        <line class="cls-3" x1="138.71" y1="120.44" x2="133.42" y2="138.01"/>
        <line class="cls-3" x1="144.4" y1="123.45" x2="133.98" y2="137.86"/>
        <path class="cls-3" d="m131.36,137.7v15.77h0l-14.09-9.64v-15.71l14.09,9.58c1.12.43,2.19.45,3.21,0"/>
        <polyline class="cls-3"
                  points="134.52 137.81 134.52 153.48 134.52 153.48 148.4 143.87 148.4 128.04 134.57 137.71"/>
        <line class="cls-3" x1="132.94" y1="119.35" x2="132.94" y2="138.01"/>
        <path class="cls-3" d="m131.36,153.48c1.15.4,2.21.43,3.16,0"/>
        <line class="cls-1" x1="109.69" y1="58.15" x2="109.69" y2="163.75"/>
        <line class="cls-1" x1="162.49" y1="110.95" x2="56.9" y2="110.95"/>
        <rect class="cls-3" x="119.2" y="77.03" width="27.04" height="8.78" rx="1.01" ry="1.01"/>
        <rect class="cls-3" x="119.2" y="90.23" width="27.04" height="8.78" rx="1.01" ry="1.01"/>
    </g>
</svg>
