<?xml version="1.0" encoding="UTF-8"?>
<svg id="Layer_2" xmlns="http://www.w3.org/2000/svg" viewBox="0 0 219.39 219.39" width="220" height="220">
    <defs>
        <style>
            .cls-1{fill:#3f55fc;}.cls-2,.cls-3,.cls-4,.cls-5{fill:none;stroke:#7119f4;stroke-linejoin:round;}.cls-2,.cls-5{stroke-width:1.5px;}.cls-3,.cls-4{stroke-width:2px;}.cls-3,.cls-4,.cls-5{stroke-linecap:round;}.cls-4{stroke-dasharray:0
            0 0 3.99;}
        </style>
    </defs>
    <g id="Layer_1-2">
        <path class="cls-5"
              d="m1.48,122.33c-.44-3.8-.68-7.65-.72-11.56C.16,50.61,48.45,1.35,108.61.76s109.42,47.69,110.02,107.86c.6,60.17-47.69,109.42-107.86,110.02-3.44.03-6.85-.09-10.21-.37"/>
        <line class="cls-3" x1="92.61" y1="217.31" x2="92.61" y2="217.31"/>
        <path class="cls-4" d="m88.68,216.62C46.44,208.36,12.85,175.66,3.41,133.72"/>
        <line class="cls-3" x1="2.99" y1="131.77" x2="2.99" y2="131.77"/>
        <path class="cls-1"
              d="m44.03,56.12c.35.26.42.74.15,1.11-.26.36-.75.44-1.1.18l-2.42-1.77-2.56,3.49,2.42,1.77c.35.26.42.74.16,1.1-.27.37-.75.44-1.1.19l-6.06-4.43c-.35-.26-.42-.74-.15-1.11.26-.36.75-.43,1.1-.18l2.46,1.8,2.56-3.49-2.46-1.8c-.35-.26-.42-.74-.16-1.1.27-.37.75-.44,1.1-.19l6.06,4.43Z"/>
        <path class="cls-1"
              d="m31.36,61.33l6.41,3.59c.39.22.52.69.3,1.09l-2.58,4.6c-.19.34-.63.47-.96.28-.35-.19-.45-.63-.26-.96l2.19-3.91-2.03-1.13-1.9,3.4c-.19.34-.63.47-.97.27-.33-.19-.44-.62-.25-.96l1.9-3.4-2.09-1.17-2.22,3.97c-.19.34-.63.47-.96.28-.34-.19-.45-.63-.26-.96l2.61-4.66c.22-.4.69-.53,1.08-.31Z"/>
        <path class="cls-1"
              d="m26.79,70.28l5.58,5.91c.3.32.4.71.23,1.13l-.03.07c-.17.42-.51.62-.95.63l-8.12.33c-.13.02-.25,0-.34-.04-.39-.16-.58-.58-.41-.98.14-.35.44-.51.8-.51l1.83-.05,1.66-4.08-1.31-1.36c-.25-.24-.31-.56-.18-.87.16-.38.57-.56.95-.41.11.04.2.12.29.23Zm.1,6.45l3.95-.11-2.74-2.84-1.2,2.95Z"/>
        <path class="cls-1"
              d="m29.42,83.53c.42.12.66.54.54.98-.12.42-.54.67-.96.55l-6.54-1.81-1.1,3.96c-.11.39-.5.61-.88.51-.38-.11-.6-.5-.5-.89l1.31-4.72c.12-.44.55-.68.98-.56l7.16,1.98Z"/>
        <path class="cls-1"
              d="m26.33,93.09l.38-2.17c.07-.41.46-.67.85-.6.39.07.66.45.59.85l-1.05,5.93c-.07.4-.45.66-.84.59-.39-.07-.66-.45-.59-.84l.39-2.18-6.66-1.18c-.43-.08-.7-.49-.63-.93.08-.43.48-.73.91-.65l6.66,1.18Z"/>
        <path class="cls-1"
              d="m25.98,100.09c.43.02.76.39.73.85-.03.44-.39.77-.82.74l-2.99-.17-.25,4.32,2.99.17c.43.02.76.4.73.84-.03.45-.39.78-.82.76l-7.49-.43c-.43-.02-.76-.39-.73-.85.03-.44.39-.77.82-.74l3.05.17.25-4.32-3.05-.17c-.43-.02-.76-.4-.73-.84.03-.45.39-.78.82-.76l7.5.43Z"/>
        <path class="cls-1"
              d="m23.36,125.85h.02c2.44-.62,4.96.77,5.65,3.47.68,2.7-.86,5.09-3.29,5.71h-.02c-2.44.63-4.96-.77-5.65-3.47-.68-2.7.86-5.09,3.29-5.71Zm1.92,7.57h.02c1.68-.43,2.77-2.03,2.32-3.77-.44-1.75-2.12-2.62-3.81-2.19h-.02c-1.68.43-2.75,2.03-2.31,3.77.44,1.75,2.11,2.62,3.8,2.19Z"/>
        <path class="cls-1"
              d="m30.25,136.79c.42-.16.86.03,1.03.46l1.02,2.58c.78,1.98.17,3.64-1.51,4.3h-.02c-1.86.75-3.44-.39-4.17-2.24l-.66-1.67-2.01.79c-.4.16-.85-.04-1.02-.45-.17-.42.02-.87.43-1.03l6.91-2.73Zm-2.32,4.62c.44,1.12,1.34,1.58,2.2,1.23h.02c.97-.39,1.2-1.31.76-2.42l-.68-1.72-2.99,1.18.68,1.72Z"/>
        <path class="cls-1"
              d="m33.92,145.58c.39-.21.86-.07,1.08.34l1.31,2.45c1,1.87.58,3.6-1.01,4.45h-.02c-1.77.96-3.46,0-4.4-1.75l-.85-1.59-1.9,1.01c-.38.21-.85.06-1.06-.33-.21-.4-.07-.87.31-1.07l6.56-3.49Zm-1.78,4.85c.57,1.06,1.51,1.41,2.33.98h.02c.92-.5,1.05-1.44.49-2.49l-.87-1.63-2.84,1.51.87,1.63Z"/>
        <path class="cls-1"
              d="m35.3,155.78l.02-.02c2.05-1.46,4.91-1.07,6.52,1.2,1.61,2.27,1.04,5.06-1,6.52h-.02c-2.05,1.47-4.91,1.09-6.52-1.18-1.61-2.27-1.04-5.06,1-6.52Zm4.53,6.37h.02c1.41-1.02,1.85-2.9.8-4.37-1.04-1.47-2.93-1.67-4.34-.67h-.02c-1.41,1.02-1.84,2.9-.79,4.36,1.04,1.47,2.92,1.68,4.33.67Z"/>
        <path class="cls-1"
              d="m45.65,163.49c.33-.3.82-.28,1.13.05l2.2,2.37c.78.84,1.14,1.72,1.13,2.53-.03.68-.33,1.33-.9,1.86l-.02.02c-1.05.97-2.26.95-3.36.31l-.4,2.74c-.03.24-.09.43-.26.6-.32.3-.79.22-1.05-.07-.25-.27-.28-.55-.23-.85l.53-3.5-1.37-1.47-1.76,1.63c-.32.3-.81.27-1.11-.05-.31-.33-.29-.82.02-1.12l5.45-5.06Zm0,5.35c.78.84,1.7.97,2.36.35l.02-.02c.7-.65.61-1.52-.19-2.39l-1.58-1.7-2.2,2.04,1.59,1.71Z"/>
        <path class="cls-1"
              d="m53.95,172.73l-1.67-1.43c-.31-.27-.34-.73-.09-1.03.26-.3.72-.34,1.03-.07l4.57,3.92c.3.26.33.72.08,1.02-.26.3-.72.34-1.03.08l-1.68-1.44-4.41,5.14c-.28.33-.78.35-1.12.07-.33-.29-.39-.78-.1-1.11l4.4-5.14Z"/>
        <path class="cls-1"
              d="m57.27,180.22l2.46-3.68c.24-.36.72-.45,1.1-.2.37.25.46.73.22,1.09l-2.43,3.63c-.92,1.38-.69,2.59.49,3.39,1.17.79,2.35.58,3.27-.79l2.46-3.68c.24-.36.72-.45,1.1-.2.37.25.46.73.22,1.09l-2.42,3.62c-1.48,2.22-3.5,2.48-5.47,1.16-1.96-1.31-2.46-3.26-1.02-5.41Z"/>
        <path class="cls-1"
              d="m68.91,182.48c.19-.39.66-.55,1.07-.35l.15.07c.35.17.46.44.54.78l1.5,7.19,2.44-4.92c.19-.38.65-.53,1.04-.34.4.2.56.66.37,1.04l-3.33,6.73c-.19.39-.65.55-1.04.35l-.06-.03c-.34-.17-.46-.44-.53-.79l-1.54-7.4-2.52,5.08c-.19.38-.65.53-1.04.34-.4-.2-.56-.66-.37-1.04l3.33-6.71Z"/>
        <path class="cls-1"
              d="m79.18,187.18c.15-.4.6-.6,1.03-.44.41.16.62.6.46,1.01l-2.66,7.02c-.15.4-.6.6-1.01.45-.42-.16-.63-.61-.48-1.01l2.66-7.02Z"/>
        <path class="cls-1"
              d="m85.66,190.18l-2.12-.6c-.4-.11-.62-.52-.51-.9s.51-.61.91-.5l5.8,1.65c.39.11.61.52.5.9-.11.38-.51.61-.9.5l-2.13-.61-1.85,6.5c-.12.42-.56.65-.99.53-.42-.12-.68-.55-.56-.97l1.85-6.5Z"/>
        <path class="cls-1"
              d="m94.71,196.38l-2.41-4.67c-.08-.17-.13-.36-.09-.57.07-.41.47-.69.91-.61.35.05.55.28.69.59l1.92,3.94,3.11-3.15c.24-.25.5-.4.83-.35.46.07.71.46.65.88-.03.21-.17.39-.31.52l-3.72,3.63-.44,2.76c-.07.43-.47.71-.92.64-.43-.07-.73-.47-.66-.9l.44-2.72Z"/>
        <path class="cls-1"
              d="m117.38,192.69c-.06-.44.25-.83.7-.89l2.75-.35c2.11-.27,3.57.74,3.8,2.53v.02c.26,1.99-1.23,3.23-3.21,3.49l-1.79.23.27,2.14c.06.43-.25.82-.68.87-.45.06-.84-.24-.9-.67l-.94-7.37Zm3.91,3.39c1.19-.15,1.86-.91,1.74-1.83v-.02c-.14-1.04-.96-1.49-2.15-1.34l-1.84.23.41,3.19,1.84-.24Z"/>
        <path class="cls-1"
              d="m126.8,191.32c-.11-.43.15-.85.59-.96l3.14-.78c1.11-.28,2.05-.17,2.75.23.58.35,1.01.93,1.2,1.69v.02c.35,1.39-.25,2.44-1.35,3.09l2.21,1.67c.2.15.34.28.4.52.11.42-.19.8-.57.89-.35.09-.62-.02-.85-.21l-2.81-2.15-1.95.49.58,2.33c.11.42-.15.84-.58.95-.44.11-.86-.14-.97-.56l-1.8-7.21Zm4.69,2.58c1.11-.28,1.67-1.02,1.45-1.9v-.02c-.24-.93-1.04-1.27-2.19-.98l-2.25.56.73,2.91,2.26-.56Z"/>
        <path class="cls-1"
              d="m137.57,192.31v-.02c-.93-2.34.13-5.02,2.72-6.04,2.59-1.02,5.16.2,6.08,2.54v.02c.93,2.34-.13,5.02-2.72,6.04-2.59,1.02-5.16-.2-6.08-2.54Zm7.27-2.87v-.02c-.65-1.61-2.37-2.49-4.04-1.82-1.68.66-2.32,2.44-1.69,4.06v.02c.65,1.61,2.36,2.47,4.04,1.81,1.68-.66,2.33-2.43,1.69-4.04Z"/>
        <path class="cls-1"
              d="m148.93,187.59v-.02c-1.24-2.18-.58-4.98,1.8-6.32,1.19-.67,2.13-.83,3.14-.73.19.02.44.13.6.4.21.37.07.85-.31,1.07-.18.1-.36.1-.52.09-.71-.08-1.4-.02-2.26.47-1.46.82-1.86,2.7-1.02,4.19v.02c.91,1.6,2.65,2.18,4.26,1.27.75-.42,1.29-1.03,1.58-1.66l-.82-1.46-1.56.88c-.34.19-.76.09-.95-.24s-.05-.76.28-.95l2.2-1.24c.4-.22.87-.09,1.09.3l1.17,2.08c.22.39.22.76,0,1.14-.43.83-1.15,1.76-2.34,2.43-2.47,1.39-5.07.57-6.35-1.7Z"/>
        <path class="cls-1"
              d="m157.05,178.51c-.27-.36-.19-.84.17-1.11l2.6-1.93c.92-.68,1.83-.95,2.63-.84.67.1,1.29.47,1.75,1.1v.02c.87,1.15.71,2.35-.05,3.37l2.68.7c.24.06.42.13.57.33.26.35.13.81-.18,1.04-.29.22-.58.22-.87.14l-3.42-.91-1.61,1.2,1.43,1.93c.26.35.18.83-.17,1.1-.36.27-.85.2-1.11-.15l-4.43-5.97Zm5.32.58c.91-.68,1.15-1.58.61-2.31l-.02-.02c-.57-.77-1.44-.77-2.39-.07l-1.86,1.38,1.79,2.41,1.87-1.39Z"/>
        <path class="cls-1"
              d="m170.25,177.54l-5.04-5.35c-.31-.32-.29-.82.04-1.13l3.83-3.62c.28-.27.74-.26,1,.02.27.29.25.73-.04,1l-3.26,3.08,1.59,1.69,2.83-2.68c.28-.26.74-.26,1.01.03.26.28.24.72-.05.99l-2.83,2.68,1.65,1.75,3.31-3.12c.28-.27.74-.26,1,.02.27.29.25.73-.04,1l-3.88,3.66c-.33.31-.82.3-1.13-.02Z"/>
        <path class="cls-1"
              d="m177.36,170.26c-.21.06-.46.01-.66-.15-.31-.26-.34-.73-.07-1.04.14-.17.28-.24.41-.26.93-.19,1.71-.59,2.34-1.34.64-.75.69-1.52.18-1.95l-.02-.02c-.49-.41-.98-.36-2.36.68-1.6,1.18-2.73,1.64-3.99.58l-.02-.02c-1.17-.99-1.14-2.66.02-4.04.74-.87,1.55-1.38,2.49-1.66.19-.07.47-.06.7.14.31.26.34.73.07,1.05-.1.12-.21.19-.35.24-.79.24-1.4.61-1.86,1.15-.6.71-.59,1.43-.15,1.81l.02.02c.53.45,1.03.33,2.47-.74,1.59-1.17,2.74-1.48,3.87-.52l.02.02c1.27,1.08,1.17,2.74-.06,4.19-.8.94-1.84,1.58-3.06,1.87Z"/>
        <path class="cls-1"
              d="m183.67,162.52c-.21.08-.46.07-.67-.08-.34-.23-.41-.69-.18-1.03.12-.18.26-.26.38-.31.91-.3,1.63-.77,2.18-1.59.55-.82.52-1.59-.03-1.96l-.02-.02c-.53-.36-1.02-.25-2.28.93-1.46,1.34-2.54,1.93-3.9,1.01l-.02-.02c-1.27-.86-1.42-2.53-.41-4.02.64-.95,1.4-1.54,2.3-1.92.19-.09.46-.11.72.06.34.23.41.69.18,1.03-.09.13-.19.21-.33.28-.76.33-1.33.76-1.73,1.35-.52.77-.44,1.49.05,1.82l.02.02c.57.39,1.06.21,2.38-1.01,1.45-1.33,2.57-1.77,3.79-.94h.02c1.39.95,1.46,2.61.4,4.19-.69,1.02-1.66,1.77-2.84,2.19Z"/>
        <path class="cls-1"
              d="m196.04,139.54l-7.01-2.22c-.43-.13-.65-.57-.51-1l1.59-5.02c.12-.37.52-.58.88-.47.38.12.57.52.45.89l-1.36,4.27,2.21.7,1.18-3.71c.12-.37.52-.58.9-.46.36.12.56.52.44.89l-1.18,3.71,2.29.73,1.37-4.33c.12-.37.52-.58.88-.47.38.12.57.52.45.89l-1.61,5.09c-.14.43-.57.66-1,.53Z"/>
        <path class="cls-1"
              d="m191.77,128.21c-.44-.08-.71-.49-.63-.94l.47-2.54c.52-2.8,2.78-4.38,5.25-3.92h.02c2.47.47,4.03,2.76,3.51,5.57l-.47,2.54c-.08.44-.49.73-.93.64l-7.23-1.35Zm7.22-2.09c.35-1.87-.66-3.33-2.38-3.65h-.02c-1.72-.33-3.21.66-3.56,2.53l-.33,1.76,5.97,1.12.33-1.76Z"/>
        <path class="cls-1"
              d="m197.92,117.74l-4.42-.25c-.43-.02-.76-.39-.73-.85.02-.44.39-.77.82-.75l4.36.24c1.66.09,2.59-.72,2.67-2.15.08-1.41-.7-2.32-2.35-2.42l-4.42-.25c-.43-.02-.76-.39-.73-.85.02-.44.39-.77.82-.75l4.35.24c2.66.15,3.92,1.75,3.78,4.12-.13,2.35-1.56,3.78-4.14,3.64Z"/>
        <path class="cls-1"
              d="m197.7,106.82h-.02c-2.54.17-4.74-1.61-4.93-4.36-.1-1.4.25-2.34.8-3.17.12-.18.32-.33.6-.35.43-.03.79.3.82.74.02.22-.05.38-.12.49-.45.65-.72,1.35-.66,2.21.12,1.72,1.6,2.89,3.35,2.77h.02c1.75-.12,3.07-1.47,2.96-3.2-.07-.96-.41-1.58-1.01-2.21-.11-.11-.2-.27-.21-.47-.03-.4.28-.77.68-.8.24-.02.44.09.58.22.8.8,1.32,1.74,1.42,3.2.18,2.64-1.71,4.74-4.27,4.91Z"/>
        <path class="cls-1"
              d="m200.18,95.35l-7.91-1.88c-.42-.1-.72-.37-.81-.82l-.02-.08c-.09-.45.09-.8.44-1.05l6.61-4.74c.1-.09.21-.13.31-.15.41-.08.8.17.88.59.07.37-.09.67-.39.87l-1.5,1.05.85,4.32,1.84.42c.34.07.56.3.63.63.08.41-.17.79-.57.86-.11.02-.23,0-.37-.03Zm-3.62-5.34l-3.24,2.26,3.85.87-.61-3.13Z"/>
        <path class="cls-1"
              d="m191.05,84.44l.65,2.1c.12.4-.1.8-.48.92s-.79-.09-.91-.49l-1.78-5.75c-.12-.38.1-.79.48-.91.38-.12.79.09.91.48l.65,2.12,6.46-2c.41-.13.85.12.98.54.13.42-.09.87-.51,1l-6.46,2Z"/>
        <path class="cls-1"
              d="m188.04,77.97c-.4.16-.85-.03-1.02-.45-.17-.41.02-.86.42-1.03l6.95-2.82c.4-.16.85.03,1.02.44.17.42-.02.87-.42,1.04l-6.95,2.82Z"/>
        <path class="cls-1"
              d="m189.73,72.02h-.02c-2.23,1.19-5.01.43-6.31-2.04-1.3-2.46-.37-5.15,1.86-6.33h.02c2.22-1.19,5.01-.43,6.31,2.04,1.3,2.46.37,5.15-1.86,6.33Zm-3.65-6.91h-.02c-1.54.82-2.21,2.63-1.37,4.22.84,1.59,2.68,2.04,4.22,1.23h.02c1.54-.82,2.2-2.62,1.36-4.22-.84-1.59-2.67-2.05-4.21-1.24Z"/>
        <path class="cls-1"
              d="m180.49,63.04c-.35.25-.85.18-1.11-.19l-.1-.14c-.23-.32-.2-.61-.11-.94l2.05-7.05-4.46,3.2c-.34.25-.83.16-1.08-.19-.26-.36-.18-.84.16-1.09l6.1-4.37c.35-.25.83-.18,1.09.18l.04.05c.22.3.2.61.1.95l-2.11,7.26,4.6-3.3c.34-.25.83-.16,1.07.19.26.36.18.84-.16,1.09l-6.09,4.36Z"/>
        <line class="cls-2" x1="73.36" y1="53.76" x2="50.42" y2="18.11"/>
        <line class="cls-2" x1="168.1" y1="16.67" x2="144.7" y2="52.33"/>
        <path class="cls-1"
              d="m85.44,22.86c-.11-.48.19-.94.69-1.05.48-.11.95.18,1.06.66l.73,3.29,4.75-1.06-.73-3.29c-.11-.48.19-.94.68-1.05.5-.11.97.18,1.07.66l1.84,8.24c.11.48-.19.94-.69,1.05-.48.11-.95-.18-1.06-.66l-.75-3.35-4.75,1.06.75,3.35c.11.48-.19.94-.68,1.05-.5.11-.97-.18-1.07-.66l-1.84-8.24Z"/>
        <path class="cls-1"
              d="m98.81,24.48v-.03c-.18-2.82,1.88-5.33,5.01-5.52,3.13-.2,5.46,2,5.63,4.82v.03c.18,2.82-1.88,5.33-5.01,5.52-3.13.2-5.45-2-5.63-4.82Zm8.77-.55v-.03c-.12-1.95-1.67-3.48-3.69-3.35-2.02.13-3.33,1.81-3.21,3.75v.03c.12,1.95,1.66,3.46,3.69,3.33,2.02-.13,3.33-1.79,3.21-3.74Z"/>
        <path class="cls-1"
              d="m114.01,19.84c.04-.5.47-.85.98-.81l3.11.26c2.38.2,3.75,1.66,3.58,3.68v.03c-.19,2.25-2.12,3.27-4.36,3.08l-2.02-.17-.21,2.42c-.04.49-.47.84-.96.8-.51-.04-.87-.46-.83-.95l.71-8.33Zm3.5,4.65c1.35.12,2.26-.56,2.35-1.6v-.03c.1-1.17-.7-1.86-2.04-1.98l-2.08-.18-.31,3.61,2.08.18Z"/>
        <path class="cls-1"
              d="m124.39,29.29l1.79-8.08c.11-.49.58-.78,1.08-.67l5.79,1.29c.43.09.71.52.61.95-.1.43-.53.69-.95.6l-4.93-1.09-.57,2.55,4.29.95c.43.09.71.52.61.96-.09.42-.52.68-.95.58l-4.29-.95-.58,2.64,5,1.11c.43.09.71.52.61.94-.1.43-.53.69-.95.6l-5.87-1.3c-.5-.11-.8-.58-.69-1.07Z"/>
        <circle class="cls-5" cx="109.69" cy="109.69" r="66.88"/>
        <rect class="cls-5" x="66.38" y="78.82" width="86.63" height="24.66" rx="3.35" ry="3.35"/>
        <path class="cls-5"
              d="m66.38,128.78v-9.51c0-1.85,1.5-3.35,3.35-3.35h79.94c1.85,0,3.35,1.5,3.35,3.35v17.96c0,1.85-1.5,3.35-3.35,3.35h-79.94"/>
    </g>
</svg>
